<?xml version="1.0" encoding="UTF-8"?>
<svg width="68px" height="78px" viewBox="0 0 68 78" version="1.1" xmlns="http://www.w3.org/2000/svg" xmlns:xlink="http://www.w3.org/1999/xlink">
  <defs>
    <path d="M52,8.5906912 C52,22.6238403 40.3595463,34 26,34 C11.6406218,34 0,22.6238403 0,8.5906912 C0,5.57570164 0.537463791,2.68344093 1.52345851,0 C13.7329816,0 30.4639587,1.24470388 50.8969972,1.24470388 C51.6143441,3.57030888 52,6.03655095 52,8.5906912" id="path-1"></path>
    <circle id="path-3" cx="43" cy="43" r="30"></circle>
    <mask id="mask-4" maskContentUnits="userSpaceOnUse" maskUnits="objectBoundingBox" x="0" y="0" width="60" height="60" fill="white">
      <use xlink:href="#path-3"></use>
    </mask>
  </defs>
  <g id="Page-2" stroke="none" stroke-width="1" fill="none" fill-rule="evenodd">
    <g id="analytics-page" transform="translate(-43.000000, -348.000000)">
      <g id="Electricity" transform="translate(31.000000, 343.000000)">
        <g id="nz">
          <g id="Group-40" transform="translate(24.000000, 44.000000)">
            <mask id="mask-2" fill="white">
              <use xlink:href="#path-1"></use>
            </mask>
            <g id="Clip-36"></g>
            <path d="M52.6615289,3 C52.4948167,3 52.3545161,3.1208216 52.3353383,3.28083299 C52.1724953,4.63572612 50.0462844,6.15095586 47.4443298,6.15095586 C45.2277814,6.15095586 42.2010557,4.48205665 42.2010557,3 C42.2010557,4.48205665 39.5858112,6.15095586 36.9835202,6.15095586 C34.8398137,6.15095586 31.5419074,4.52270995 31.5419074,3 C31.5419074,4.46173 28.4847327,6.15095586 26.5233834,6.15095586 C23.9210924,6.15095586 21.3058479,4.46173 21.3058479,3 C21.3058479,4.48205665 18.6387898,6.15095586 16.0629102,6.15095586 C13.4606192,6.15095586 10.8198043,4.44140335 10.8198043,3 C10.8198043,4.44140335 8.20455988,6.15095586 5.60260528,6.15095586 C3.00014601,6.15095586 0.87376687,4.63572612 0.711260363,3.28083299 C0.692082577,3.1208216 0.551950154,3 0.385237992,3 L0.359331158,3 C0.193291901,3 0.0533277046,3.12000854 0.0333087871,3.27953208 C0.0274208702,3.32701513 0.0185048817,3.37384773 0.00773840509,3.42035511 C0.00269161916,3.44312095 0,3.46604941 0,3.48897787 L0,18.6827417 C0,18.8580387 0.147029697,19 0.328377538,19 L52.6717907,18.5300479 C52.8529703,18.5300479 53,18.3879239 53,18.2127895 L53,3.31758357 C53,3.14212393 52.8427085,3 52.6615289,3" id="Fill-35" fill="#1B5B94" mask="url(#mask-2)"></path>
            <path d="M51.6615289,10 C51.4948167,10 51.3545161,10.1208216 51.3353383,10.280833 C51.1724953,11.6357261 49.0462844,13.1509559 46.4443298,13.1509559 C44.2277814,13.1509559 41.2010557,11.4820567 41.2010557,10 C41.2010557,11.4820567 38.5858112,13.1509559 35.9835202,13.1509559 C33.8398137,13.1509559 30.5419074,11.5227099 30.5419074,10 C30.5419074,11.46173 27.4847327,13.1509559 25.5233834,13.1509559 C22.9210924,13.1509559 20.3058479,11.46173 20.3058479,10 C20.3058479,11.4820567 17.6387898,13.1509559 15.0629102,13.1509559 C12.4606192,13.1509559 9.81980435,11.4414034 9.81980435,10 C9.81980435,11.4414034 7.20455988,13.1509559 4.60260528,13.1509559 C2.00014601,13.1509559 -0.12623313,11.6357261 -0.288739637,10.280833 C-0.307917423,10.1208216 -0.448049846,10 -0.614762008,10 L-0.640668842,10 C-0.806708099,10 -0.946672295,10.1200085 -0.966691213,10.2795321 C-0.97257913,10.3270151 -0.981495118,10.3738477 -0.992261595,10.4203551 C-0.997308381,10.443121 -1,10.4660494 -1,10.4889779 L-1,25.6827417 C-1,25.8580387 -0.852970303,26 -0.671622462,26 L51.6717907,25.5300479 C51.8529703,25.5300479 52,25.3879239 52,25.2127895 L52,10.3175836 C52,10.1421239 51.8427085,10 51.6615289,10" id="Fill-37" fill="#1B67A3" mask="url(#mask-2)"></path>
            <path d="M52.6615289,17 C52.4948167,17 52.3545161,17.1208216 52.3353383,17.280833 C52.1724953,18.6357261 50.0462844,20.1509559 47.4443298,20.1509559 C45.2277814,20.1509559 42.2010557,18.4820567 42.2010557,17 C42.2010557,18.4820567 39.5858112,20.1509559 36.9835202,20.1509559 C34.8398137,20.1509559 31.5419074,18.5227099 31.5419074,17 C31.5419074,18.46173 28.4847327,20.1509559 26.5233834,20.1509559 C23.9210924,20.1509559 21.3058479,18.46173 21.3058479,17 C21.3058479,18.4820567 18.6387898,20.1509559 16.0629102,20.1509559 C13.4606192,20.1509559 10.8198043,18.4414034 10.8198043,17 C10.8198043,18.4414034 8.20455988,20.1509559 5.60260528,20.1509559 C3.00014601,20.1509559 0.87376687,18.6357261 0.711260363,17.280833 C0.692082577,17.1208216 0.551950154,17 0.385237992,17 L0.359331158,17 C0.193291901,17 0.0533277046,17.1200085 0.0333087871,17.2795321 C0.0274208702,17.3270151 0.0185048817,17.3738477 0.00773840509,17.4203551 C0.00269161916,17.443121 0,17.4660494 0,17.4889779 L0,32.6827417 C0,32.8580387 0.147029697,33 0.328377538,33 L52.6717907,32.5300479 C52.8529703,32.5300479 53,32.3879239 53,32.2127895 L53,17.3175836 C53,17.1421239 52.8427085,17 52.6615289,17" id="Fill-38" fill="#2770AA" mask="url(#mask-2)"></path>
            <path d="M52.6615289,24 C52.4948167,24 52.3545161,24.1208216 52.3353383,24.280833 C52.1724953,25.6357261 50.0462844,27.1509559 47.4443298,27.1509559 C45.2277814,27.1509559 42.2010557,25.4820567 42.2010557,24 C42.2010557,25.4820567 39.5858112,27.1509559 36.9835202,27.1509559 C34.8398137,27.1509559 31.5419074,25.5227099 31.5419074,24 C31.5419074,25.46173 28.4847327,27.1509559 26.5233834,27.1509559 C23.9210924,27.1509559 21.3058479,25.46173 21.3058479,24 C21.3058479,25.4820567 18.6387898,27.1509559 16.0629102,27.1509559 C13.4606192,27.1509559 10.8198043,25.4414034 10.8198043,24 C10.8198043,25.4414034 8.20455988,27.1509559 5.60260528,27.1509559 C3.00014601,27.1509559 0.87376687,25.6357261 0.711260363,24.280833 C0.692082577,24.1208216 0.551950154,24 0.385237992,24 L0.359331158,24 C0.193291901,24 0.0533277046,24.1200085 0.0333087871,24.2795321 C0.0274208702,24.3270151 0.0185048817,24.3738477 0.00773840509,24.4203551 C0.00269161916,24.443121 0,24.4660494 0,24.4889779 L0,39.6827417 C0,39.8580387 0.147029697,40 0.328377538,40 L52.6717907,39.5300479 C52.8529703,39.5300479 53,39.3879239 53,39.2127895 L53,24.3175836 C53,24.1421239 52.8427085,24 52.6615289,24" id="Fill-39" fill="#3077AF" mask="url(#mask-2)"></path>
          </g>
          <g id="chart" transform="translate(50.000000, 50.000000) rotate(-9.000000) translate(-50.000000, -50.000000) translate(7.000000, 7.000000)">
            <circle id="Oval-4" stroke="#F4F4F4" stroke-width="5" cx="43" cy="43" r="27.5"></circle>
            <use id="Oval-4-Copy" stroke="#1B68B3" mask="url(#mask-4)" stroke-width="10" stroke-dasharray="19,200" transform="translate(43.000000, 43.000000) rotate(-134.000000) translate(-43.000000, -43.000000) " xlink:href="#path-3"></use>
          </g>
          <g id="details" transform="translate(27.000000, 3.000000)">
            <g id="Group-20">
              <circle id="Oval-5" fill="#1B68B3" cx="3" cy="7" r="3"></circle>
              <text id="Water" font-family="GillSansMT, Gill Sans MT" font-size="11" font-weight="normal" fill="#333333">
                <tspan x="10" y="10">Water</tspan>
              </text>
            </g>
          </g>
        </g>
        <circle id="Oval" fill="#A8C5E7" cx="24.5" cy="70.5" r="12.5"></circle>
        <text id="18%" fill="#FFFFFF" font-family="GillSansMT, Gill Sans MT" font-size="11" font-weight="normal">
          <tspan x="16" y="74">18%</tspan>
        </text>
      </g>
    </g>
  </g>
</svg>
